# xmcd CD database file
#
# Track frame offsets:
#	183
#	17733
#	36283
#	52645
#	65245
#	82995
#	99170
#	115945
#	128283
#	145755
#	162445
#	179708
#	200370
#	218820
#
# Disc length: 3202 seconds
#
# Revision: 0
# Processed by: cddbd v1.5.1PL0 Copyright (c) Steve Scherf et al.
# Submitted via: CDex 1.51
#
DISCID=b90c800e
DTITLE=小林旭 - Super Value
DYEAR=2001
DGENRE=Pop
TTITLE0=昔の名前で出ています
TTITLE1=ついて来るかい
TTITLE2=泣いた数だけ倖せに
TTITLE3=北帰行
TTITLE4=北へ
TTITLE5=もう一度一から出なおします
TTITLE6=横浜マドロスストーリー
TTITLE7=自動車ショー歌
TTITLE8=星海峡
TTITLE9=水たまり
TTITLE10=古城の月
TTITLE11=旅空夜空
TTITLE12=さらば冬のカモメ
TTITLE13=熱き心に
EXTD=YEAR: 2001
EXTT0=
EXTT1=
EXTT2=
EXTT3=
EXTT4=
EXTT5=
EXTT6=
EXTT7=
EXTT8=
EXTT9=
EXTT10=
EXTT11=
EXTT12=
EXTT13=
PLAYORDER=
